<svg width="293" height="65" viewBox="0 0 293 65" fill="none" xmlns="http://www.w3.org/2000/svg">
<path d="M29.8462 30.6335H35.2042L37.8977 34.0987L40.5476 37.1854L45.5415 43.446H39.6594L36.2234 39.2237L34.4616 36.7195L29.8462 30.6335ZM45.9929 26.0909C45.9929 29.3426 45.3765 32.1089 44.1438 34.3899C42.9208 36.6709 41.2513 38.4132 39.1353 39.6168C37.029 40.8107 34.6606 41.4077 32.0302 41.4077C29.3803 41.4077 27.0022 40.8059 24.896 39.6023C22.7897 38.3987 21.125 36.6564 19.902 34.3754C18.679 32.0943 18.0675 29.3329 18.0675 26.0909C18.0675 22.8393 18.679 20.0729 19.902 17.7919C21.125 15.5109 22.7897 13.7734 24.896 12.5795C27.0022 11.3759 29.3803 10.7741 32.0302 10.7741C34.6606 10.7741 37.029 11.3759 39.1353 12.5795C41.2513 13.7734 42.9208 15.5109 44.1438 17.7919C45.3765 20.0729 45.9929 22.8393 45.9929 26.0909ZM39.6012 26.0909C39.6012 23.9846 39.2857 22.2083 38.6548 20.7621C38.0336 19.3158 37.1552 18.219 36.0195 17.4716C34.8839 16.7242 33.5541 16.3505 32.0302 16.3505C30.5063 16.3505 29.1765 16.7242 28.0408 17.4716C26.9052 18.219 26.0219 19.3158 25.391 20.7621C24.7698 22.2083 24.4592 23.9846 24.4592 26.0909C24.4592 28.1972 24.7698 29.9735 25.391 31.4197C26.0219 32.866 26.9052 33.9628 28.0408 34.7102C29.1765 35.4576 30.5063 35.8313 32.0302 35.8313C33.5541 35.8313 34.8839 35.4576 36.0195 34.7102C37.1552 33.9628 38.0336 32.866 38.6548 31.4197C39.2857 29.9735 39.6012 28.1972 39.6012 26.0909ZM64.8877 31.478V18.6364H71.0901V41H65.1352V36.9379H64.9023C64.3975 38.2482 63.5579 39.3014 62.3834 40.0973C61.2187 40.8932 59.7967 41.2912 58.1175 41.2912C56.6227 41.2912 55.3074 40.9515 54.1718 40.272C53.0361 39.5926 52.148 38.6268 51.5074 37.3746C50.8765 36.1225 50.5561 34.6229 50.5464 32.8757V18.6364H56.7488V31.7692C56.7586 33.0893 57.1128 34.1327 57.8117 34.8995C58.5106 35.6663 59.4472 36.0497 60.6217 36.0497C61.3691 36.0497 62.068 35.8799 62.7183 35.5401C63.3686 35.1907 63.8928 34.6763 64.2907 33.9968C64.6984 33.3174 64.8974 32.4777 64.8877 31.478ZM82.4284 41.4222C81.0016 41.4222 79.7301 41.1747 78.6138 40.6797C77.4976 40.175 76.6143 39.4324 75.964 38.4521C75.3233 37.462 75.003 36.2293 75.003 34.7539C75.003 33.5115 75.2311 32.468 75.6873 31.6236C76.1435 30.7791 76.7647 30.0997 77.551 29.5852C78.3372 29.0708 79.2302 28.6825 80.2299 28.4205C81.2394 28.1584 82.2974 27.974 83.4039 27.8672C84.7046 27.7313 85.7529 27.6051 86.5488 27.4886C87.3448 27.3625 87.9223 27.178 88.2814 26.9354C88.6406 26.6927 88.8201 26.3336 88.8201 25.858V25.7706C88.8201 24.8485 88.5289 24.1351 87.9466 23.6303C87.3739 23.1256 86.5585 22.8732 85.5005 22.8732C84.3843 22.8732 83.4962 23.1207 82.8361 23.6158C82.1761 24.1011 81.7393 24.7126 81.5257 25.4503L75.7892 24.9844C76.0804 23.6255 76.6531 22.451 77.5073 21.4609C78.3614 20.4612 79.4631 19.6944 80.8123 19.1605C82.1712 18.617 83.7437 18.3452 85.5297 18.3452C86.7721 18.3452 87.9611 18.4908 89.0968 18.782C90.2421 19.0732 91.2565 19.5245 92.1397 20.136C93.0327 20.7475 93.7364 21.5337 94.2509 22.4947C94.7653 23.4459 95.0225 24.5864 95.0225 25.9162V41H89.1404V37.8988H88.9657C88.6066 38.5977 88.1261 39.214 87.5243 39.7479C86.9225 40.272 86.1994 40.6845 85.3549 40.9854C84.5105 41.2766 83.535 41.4222 82.4284 41.4222ZM84.2047 37.1417C85.1171 37.1417 85.9228 36.9621 86.6216 36.603C87.3205 36.2341 87.8689 35.7391 88.2669 35.1179C88.6648 34.4967 88.8638 33.793 88.8638 33.0067V30.6335C88.6697 30.7597 88.4028 30.8762 88.063 30.983C87.733 31.08 87.3593 31.1722 86.9419 31.2596C86.5246 31.3372 86.1072 31.41 85.6898 31.478C85.2724 31.5362 84.8939 31.5896 84.5542 31.6381C83.8262 31.7449 83.1904 31.9148 82.6468 32.1477C82.1033 32.3807 81.681 32.6961 81.3801 33.0941C81.0792 33.4824 80.9288 33.9677 80.9288 34.5501C80.9288 35.3945 81.2346 36.04 81.8461 36.4865C82.4673 36.9233 83.2535 37.1417 84.2047 37.1417ZM106.037 28.071V41H99.8345V18.6364H105.746V22.582H106.008C106.503 21.2814 107.333 20.2525 108.498 19.4954C109.662 18.7286 111.075 18.3452 112.734 18.3452C114.287 18.3452 115.641 18.6849 116.797 19.3643C117.952 20.0438 118.849 21.0144 119.49 22.2763C120.131 23.5284 120.451 25.0232 120.451 26.7607V41H114.249V27.8672C114.258 26.4986 113.909 25.4309 113.2 24.6641C112.492 23.8875 111.516 23.4993 110.274 23.4993C109.439 23.4993 108.701 23.6789 108.061 24.038C107.43 24.3971 106.935 24.9213 106.576 25.6104C106.226 26.2899 106.047 27.1101 106.037 28.071ZM151.765 21.6211H145.388C145.272 20.796 145.034 20.0632 144.675 19.4226C144.315 18.7723 143.854 18.219 143.291 17.7628C142.728 17.3066 142.078 16.9571 141.34 16.7145C140.612 16.4718 139.821 16.3505 138.967 16.3505C137.424 16.3505 136.08 16.7339 134.934 17.5007C133.789 18.2578 132.901 19.3643 132.27 20.8203C131.639 22.2666 131.323 24.0234 131.323 26.0909C131.323 28.2166 131.639 30.0026 132.27 31.4489C132.91 32.8951 133.803 33.9871 134.949 34.7248C136.094 35.4625 137.419 35.8313 138.924 35.8313C139.768 35.8313 140.549 35.7197 141.268 35.4964C141.996 35.2732 142.641 34.948 143.204 34.521C143.767 34.0842 144.233 33.5552 144.602 32.9339C144.98 32.3127 145.242 31.6042 145.388 30.8082L151.765 30.8374C151.6 32.206 151.188 33.526 150.528 34.7976C149.877 36.0594 148.999 37.1902 147.892 38.19C146.795 39.18 145.485 39.9663 143.961 40.5487C142.447 41.1213 140.734 41.4077 138.822 41.4077C136.162 41.4077 133.784 40.8059 131.687 39.6023C129.601 38.3987 127.95 36.6564 126.737 34.3754C125.534 32.0943 124.932 29.3329 124.932 26.0909C124.932 22.8393 125.543 20.0729 126.766 17.7919C127.989 15.5109 129.649 13.7734 131.746 12.5795C133.842 11.3759 136.201 10.7741 138.822 10.7741C140.549 10.7741 142.151 11.0168 143.626 11.5021C145.111 11.9875 146.427 12.696 147.572 13.6278C148.717 14.55 149.649 15.6808 150.367 17.0202C151.095 18.3597 151.561 19.8933 151.765 21.6211ZM156.169 41V18.6364H162.183V22.5384H162.416C162.823 21.1503 163.508 20.102 164.468 19.3935C165.429 18.6752 166.536 18.3161 167.788 18.3161C168.099 18.3161 168.434 18.3355 168.793 18.3743C169.152 18.4131 169.467 18.4665 169.739 18.5344V24.038C169.448 23.9506 169.045 23.873 168.531 23.805C168.016 23.7371 167.545 23.7031 167.118 23.7031C166.206 23.7031 165.391 23.9021 164.672 24.3001C163.964 24.6883 163.401 25.2319 162.983 25.9308C162.576 26.6296 162.372 27.4353 162.372 28.3477V41H156.169ZM182.097 41.4368C179.796 41.4368 177.816 40.9709 176.156 40.0391C174.506 39.0975 173.235 37.7678 172.342 36.0497C171.449 34.322 171.002 32.2788 171.002 29.9201C171.002 27.6197 171.449 25.6007 172.342 23.8633C173.235 22.1258 174.492 20.7718 176.113 19.8011C177.743 18.8305 179.655 18.3452 181.849 18.3452C183.324 18.3452 184.698 18.583 185.969 19.0586C187.251 19.5245 188.367 20.2282 189.318 21.1697C190.279 22.1113 191.027 23.2955 191.56 24.7223C192.094 26.1394 192.361 27.7992 192.361 29.7017V31.4052H173.477V27.5614H186.523C186.523 26.6684 186.329 25.8774 185.94 25.1882C185.552 24.4991 185.013 23.9603 184.324 23.5721C183.645 23.1741 182.854 22.9751 181.951 22.9751C181.009 22.9751 180.175 23.1935 179.447 23.6303C178.728 24.0574 178.165 24.6349 177.758 25.3629C177.35 26.0812 177.141 26.882 177.132 27.7653V31.4197C177.132 32.5263 177.336 33.4824 177.743 34.288C178.161 35.0936 178.748 35.7148 179.505 36.1516C180.262 36.5884 181.16 36.8068 182.199 36.8068C182.888 36.8068 183.519 36.7098 184.091 36.5156C184.664 36.3215 185.154 36.0303 185.562 35.642C185.969 35.2538 186.28 34.7782 186.494 34.2152L192.23 34.5938C191.939 35.9721 191.342 37.1757 190.439 38.2045C189.546 39.2237 188.391 40.0196 186.974 40.5923C185.567 41.1553 183.941 41.4368 182.097 41.4368ZM202.786 41.4222C201.359 41.4222 200.087 41.1747 198.971 40.6797C197.855 40.175 196.972 39.4324 196.321 38.4521C195.681 37.462 195.36 36.2293 195.36 34.7539C195.36 33.5115 195.589 32.468 196.045 31.6236C196.501 30.7791 197.122 30.0997 197.908 29.5852C198.695 29.0708 199.588 28.6825 200.587 28.4205C201.597 28.1584 202.655 27.974 203.761 27.8672C205.062 27.7313 206.11 27.6051 206.906 27.4886C207.702 27.3625 208.28 27.178 208.639 26.9354C208.998 26.6927 209.178 26.3336 209.178 25.858V25.7706C209.178 24.8485 208.886 24.1351 208.304 23.6303C207.731 23.1256 206.916 22.8732 205.858 22.8732C204.742 22.8732 203.854 23.1207 203.194 23.6158C202.533 24.1011 202.097 24.7126 201.883 25.4503L196.147 24.9844C196.438 23.6255 197.011 22.451 197.865 21.4609C198.719 20.4612 199.821 19.6944 201.17 19.1605C202.529 18.617 204.101 18.3452 205.887 18.3452C207.129 18.3452 208.319 18.4908 209.454 18.782C210.6 19.0732 211.614 19.5245 212.497 20.136C213.39 20.7475 214.094 21.5337 214.608 22.4947C215.123 23.4459 215.38 24.5864 215.38 25.9162V41H209.498V37.8988H209.323C208.964 38.5977 208.484 39.214 207.882 39.7479C207.28 40.272 206.557 40.6845 205.712 40.9854C204.868 41.2766 203.892 41.4222 202.786 41.4222ZM204.562 37.1417C205.475 37.1417 206.28 36.9621 206.979 36.603C207.678 36.2341 208.226 35.7391 208.624 35.1179C209.022 34.4967 209.221 33.793 209.221 33.0067V30.6335C209.027 30.7597 208.76 30.8762 208.42 30.983C208.09 31.08 207.717 31.1722 207.299 31.2596C206.882 31.3372 206.465 31.41 206.047 31.478C205.63 31.5362 205.251 31.5896 204.912 31.6381C204.184 31.7449 203.548 31.9148 203.004 32.1477C202.461 32.3807 202.038 32.6961 201.738 33.0941C201.437 33.4824 201.286 33.9677 201.286 34.5501C201.286 35.3945 201.592 36.04 202.203 36.4865C202.825 36.9233 203.611 37.1417 204.562 37.1417ZM232.087 18.6364V23.2955H218.619V18.6364H232.087ZM221.677 13.2784H227.879V34.1278C227.879 34.7005 227.967 35.147 228.142 35.4673C228.316 35.7779 228.559 35.9963 228.869 36.1225C229.19 36.2487 229.559 36.3118 229.976 36.3118C230.267 36.3118 230.558 36.2875 230.85 36.239C231.141 36.1808 231.364 36.1371 231.519 36.108L232.495 40.7234C232.184 40.8204 231.747 40.9321 231.184 41.0582C230.622 41.1941 229.937 41.2766 229.132 41.3058C227.637 41.364 226.326 41.165 225.2 40.7088C224.084 40.2526 223.215 39.544 222.594 38.5831C221.973 37.6222 221.667 36.4089 221.677 34.9432V13.2784ZM245.992 41.4368C243.73 41.4368 241.774 40.9563 240.124 39.9954C238.484 39.0247 237.217 37.6755 236.324 35.9478C235.431 34.2103 234.985 32.1963 234.985 29.9055C234.985 27.5954 235.431 25.5765 236.324 23.8487C237.217 22.1113 238.484 20.7621 240.124 19.8011C241.774 18.8305 243.73 18.3452 245.992 18.3452C248.253 18.3452 250.204 18.8305 251.845 19.8011C253.495 20.7621 254.766 22.1113 255.659 23.8487C256.552 25.5765 256.999 27.5954 256.999 29.9055C256.999 32.1963 256.552 34.2103 255.659 35.9478C254.766 37.6755 253.495 39.0247 251.845 39.9954C250.204 40.9563 248.253 41.4368 245.992 41.4368ZM246.021 36.6321C247.05 36.6321 247.909 36.3409 248.598 35.7585C249.287 35.1664 249.806 34.3608 250.156 33.3416C250.515 32.3224 250.694 31.1625 250.694 29.8619C250.694 28.5612 250.515 27.4013 250.156 26.3821C249.806 25.3629 249.287 24.5573 248.598 23.9652C247.909 23.3731 247.05 23.0771 246.021 23.0771C244.982 23.0771 244.109 23.3731 243.4 23.9652C242.701 24.5573 242.172 25.3629 241.813 26.3821C241.464 27.4013 241.289 28.5612 241.289 29.8619C241.289 31.1625 241.464 32.3224 241.813 33.3416C242.172 34.3608 242.701 35.1664 243.4 35.7585C244.109 36.3409 244.982 36.6321 246.021 36.6321ZM261.032 41V18.6364H267.045V22.5384H267.278C267.686 21.1503 268.37 20.102 269.331 19.3935C270.292 18.6752 271.398 18.3161 272.65 18.3161C272.961 18.3161 273.296 18.3355 273.655 18.3743C274.014 18.4131 274.33 18.4665 274.601 18.5344V24.038C274.31 23.9506 273.907 23.873 273.393 23.805C272.878 23.7371 272.408 23.7031 271.981 23.7031C271.068 23.7031 270.253 23.9021 269.535 24.3001C268.826 24.6883 268.263 25.2319 267.846 25.9308C267.438 26.6296 267.234 27.4353 267.234 28.3477V41H261.032Z" fill="#0F1627"/>
</svg>
